#!OML:ASF F:\VICON\USERDATA\INSTALL\rory3\rory3.ASF
:FULLY-SPECIFIED
:DEGREES
259
root 5.40006 17.7745 12.4964 37.6397 80.1948 41.0328
lowerback 11.044 0.125664 -7.26815
upperback 1.05217 -0.718362 -1.03472
thorax -5.0194 -0.187108 3.11439
lowerneck -20.6862 -4.80963 -11.4822
upperneck 29.3266 -4.63764 6.68111
head 13.9055 -2.25114 3.8404
rclavicle 3.43649e-014 7.95139e-015
rhumerus -33.8435 -16.0566 -80.8834
rradius 28.8083
rwrist 7.91739
rhand -15.4108 9.15549
rfingers 7.12502
rthumb 10.7685 -20.5485
lclavicle 3.43649e-014 7.95139e-015
lhumerus -28.2987 -1.07138 87.0149
lradius 35.707
lwrist -4.54266
lhand -17.3174 26.6316
lfingers 7.12502
lthumb 8.92909 56.4227
rfemur -26.705 0.160236 10.2143
rtibia 48.158
rfoot -9.25847 -4.58051
rtoes -0.417482
lfemur 4.29015 -4.19744 -34.2666
ltibia 16.0682
lfoot -10.5574 -10.2946
ltoes 12.9486
260
root 5.52716 17.7768 12.5361 38.883 80.4038 42.1628
lowerback 10.9753 0.126685 -7.23883
upperback 1.04594 -0.709356 -1.07476
thorax -4.98945 -0.184423 3.05373
lowerneck -20.6514 -4.882 -11.4719
upperneck 29.2178 -4.78179 6.77218
head 13.8701 -2.29952 3.84569
rclavicle -6.37353e-015 1.25234e-014
rhumerus -33.9949 -16.1164 -80.8077
rradius 28.5887
rwrist 7.90099
rhand -15.5747 8.92945
rfingers 7.12502
rthumb 10.6105 -20.7827
lclavicle -6.37353e-015 1.25234e-014
lhumerus -27.9812 -1.19366 86.9852
lradius 35.9374
lwrist -4.66372
lhand -17.1198 26.4695
lfingers 7.12502
lthumb 9.11973 56.2524
rfemur -26.8444 0.486584 10.1163
rtibia 45.5391
rfoot -8.86378 -4.92051
rtoes -2.12821
lfemur 5.00636 -4.63074 -34.3046
ltibia 15.4545
lfoot -10.4081 -10.0533
ltoes 11.9411
261
root 5.65454 17.7848 12.5799 38.6396 80.8088 41.8397
lowerback 10.9605 0.122577 -6.95736
upperback 1.06481 -0.67542 -0.984104
thorax -4.96681 -0.174701 2.98602
lowerneck -20.6824 -4.92987 -11.5073
upperneck 29.1494 -4.85374 6.8283
head 13.8587 -2.32625 3.85884
rclavicle 1.79403e-014 1.63003e-014
rhumerus -34.1178 -16.1209 -80.6551
rradius 28.3696
rwrist 7.88387
rhand -15.6003 8.70257
rfingers 7.12502
rthumb 10.5857 -21.0108
lclavicle 1.79403e-014 1.63003e-014
lhumerus -27.6044 -1.11918 86.9639
lradius 36.1114
lwrist -4.91978
lhand -16.6438 26.1686
lfingers 7.12502
lthumb 9.57902 55.9309
rfemur -26.8235 1.07191 10.3454
rtibia 42.8271
rfoot -8.216 -5.32226
rtoes -3.80881
lfemur 5.82442 -4.84362 -33.9346
ltibia 14.7779
lfoot -10.3452 -10.034
ltoes 10.9767
262
root 5.78165 17.7887 12.6217 39.678 81.0683 42.7639
lowerback 10.8513 0.146313 -6.92239
upperback 1.12071 -0.624579 -0.927972
thorax -4.85154 -0.154995 3.01675
lowerneck -20.7979 -5.01746 -11.6285
upperneck 29.1153 -4.94759 6.89859
head 13.8867 -2.36966 3.88907
rclavicle -5.8393e-015 7.15625e-015
rhumerus -34.0995 -16.5698 -80.338
rradius 27.9797
rwrist 8.19572
rhand -15.4496 8.67227
rfingers 7.12502
rthumb 10.7311 -21.0337
lclavicle -5.8393e-015 7.15625e-015
lhumerus -27.0677 -1.28758 87.1249
lradius 36.1916
lwrist -4.63354
lhand -16.9057 26.3551
lfingers 7.12502
lthumb 9.32637 56.1288
rfemur -26.8333 1.62121 10.2354
rtibia 40.0858
rfoot -7.24333 -5.37008
rtoes -4.96246
lfemur 6.51066 -4.66816 -33.7409
ltibia 14.1597
lfoot -10.3228 -10.3887
ltoes 10.5217
263
root 5.91167 17.7782 12.6622 41.1808 81.2944 44.161
lowerback 10.7413 0.0950958 -6.97011
upperback 1.15827 -0.685571 -0.911187
thorax -4.74339 -0.188268 3.06886
lowerneck -20.8417 -5.03315 -11.6361
upperneck 29.0203 -4.97726 6.94115
head 13.8601 -2.37685 3.89855
rclavicle 9.57894e-015 -5.36719e-015
rhumerus -34.0868 -17.1328 -80.0925
rradius 27.5467
rwrist 8.7161
rhand -15.2751 8.67834
rfingers 7.12502
rthumb 10.8994 -21.0188
lclavicle 9.57894e-015 -5.36719e-015
lhumerus -26.6886 -1.64784 87.267
lradius 36.4236
lwrist -3.62204
lhand -18.1497 27.1657
lfingers 7.12502
lthumb 8.12586 56.9895
rfemur -26.8488 1.62617 10.2097
rtibia 37.352
rfoot -5.83348 -5.41938
rtoes -5.46836
lfemur 7.05782 -4.56762 -33.6582
ltibia 13.6312
lfoot -10.2028 -10.6562
ltoes 10.6945
264
root 6.03905 17.7708 12.7021 43.1729 81.5907 46.0475
lowerback 10.7107 -0.0319359 -7.03524
upperback 1.15307 -0.858011 -0.879284
thorax -4.71234 -0.272786 3.16341
lowerneck -20.858 -5.02241 -11.6735
upperneck 28.9067 -4.95319 6.96159
head 13.8137 -2.36765 3.91342
rclavicle 1.21756e-015 -1.98785e-016
rhumerus -34.1217 -17.3093 -79.9218
rradius 27.1462
rwrist 9.15126
rhand -15.2781 8.74886
rfingers 7.12502
rthumb 10.8965 -20.9484
lclavicle 1.21756e-015 -1.98785e-016
lhumerus -26.3866 -1.59025 87.2724
lradius 36.5841
lwrist -3.03366
lhand -18.6698 27.0408
lfingers 7.12502
lthumb 7.62392 56.8834
rfemur -26.8396 1.3132 10.29
rtibia 34.688
rfoot -4.37205 -5.60852
rtoes -3.20605
lfemur 7.63915 -4.33839 -33.5151
ltibia 13.0733
lfoot -10.1487 -11.1103
ltoes 9.69267
265
root 6.16723 17.7836 12.7386 45.0828 81.9672 47.8099
lowerback 10.6621 -0.118568 -6.90755
upperback 1.12918 -0.954111 -0.831716
thorax -4.70152 -0.322689 3.15493
lowerneck -20.9464 -5.06415 -11.8849
upperneck 28.8989 -4.9855 7.14116
head 13.8463 -2.37983 4.01671
rclavicle 1.72694e-014 3.97569e-016
rhumerus -34.2042 -17.3583 -79.7141
rradius 26.7598
rwrist 9.45801
rhand -15.4437 8.71768
rfingers 7.12502
rthumb 10.7368 -20.9879
lclavicle 1.72694e-014 3.97569e-016
lhumerus -25.9695 -1.01129 87.1591
lradius 36.4947
lwrist -3.9888
lhand -17.4001 26.2234
lfingers 7.12502
lthumb 8.84929 56.0178
rfemur -26.7773 1.43485 10.3056
rtibia 32.1002
rfoot -3.34564 -5.95369
rtoes 1.07469
lfemur 8.29769 -4.25662 -33.2573
ltibia 12.5552
lfoot -10.1623 -11.5607
ltoes 8.71755
266
root 6.30113 17.7933 12.7732 47.2945 82.1945 49.8881
lowerback 10.5655 -0.157992 -6.8229
upperback 1.11132 -0.992244 -0.89191
thorax -4.66498 -0.344427 3.04823
lowerneck -21.008 -5.08649 -11.8988
upperneck 28.8963 -5.05816 7.29959
head 13.8722 -2.38997 4.07077
rclavicle 2.05866e-014 2.68359e-014
rhumerus -34.3317 -17.7893 -79.5536
rradius 26.321
rwrist 9.92368
rhand -15.5599 8.80542
rfingers 7.12502
rthumb 10.6247 -20.906
lclavicle 2.05866e-014 2.68359e-014
lhumerus -25.6948 -1.09978 87.0985
lradius 36.592
lwrist -4.40178
lhand -16.9783 26.741
lfingers 7.12502
lthumb 9.2563 56.5178
rfemur -26.7088 1.53104 10.2245
rtibia 29.6205
rfoot -2.45008 -5.97029
rtoes 2.11986
lfemur 8.94502 -4.55528 -33.2113
ltibia 12.1278
lfoot -9.9178 -11.7367
ltoes 9.65299
267
root 6.43596 17.7937 12.8069 48.6374 82.4259 51.1708
lowerback 10.5204 -0.181908 -6.68363
upperback 1.12309 -1.00466 -0.919553
thorax -4.62896 -0.354779 2.94201
lowerneck -20.9128 -5.11388 -11.7598
upperneck 28.7232 -5.14 7.24103
head 13.7805 -2.41818 4.00144
rclavicle -1.83876e-014 -1.27222e-014
rhumerus -34.4677 -18.2235 -79.3756
rradius 25.9742
rwrist 10.3501
rhand -15.5206 8.65594
rfingers 7.12502
rthumb 10.6626 -21.0535
lclavicle -1.83876e-014 -1.27222e-014
lhumerus -25.5099 -1.57801 87.1823
lradius 36.8273
lwrist -3.93458
lhand -17.5373 27.4249
lfingers 7.12502
lthumb 8.7169 57.2249
rfemur -26.5648 1.09928 10.452
rtibia 27.2869
rfoot -1.92752 -5.43301
rtoes -0.533919
lfemur 9.58788 -4.83609 -33.114
ltibia 11.7731
lfoot -9.66846 -11.7994
ltoes 10.3622
268
root 6.56943 17.7945 12.8441 50.3004 82.6538 52.7635
lowerback 10.493 -0.210313 -6.606
upperback 1.10975 -1.03235 -0.922844
thorax -4.62641 -0.369889 2.89854
lowerneck -20.7864 -5.14594 -11.6099
upperneck 28.5729 -5.20076 7.07794
head 13.6863 -2.45098 3.89276
rclavicle -5.96354e-015 2.04748e-014
rhumerus -34.6253 -18.591 -79.0967
rradius 25.6383
rwrist 10.8436
rhand -15.4504 8.59467
rfingers 7.12502
rthumb 10.7303 -21.1113
lclavicle -5.96354e-015 2.04748e-014
lhumerus -25.2933 -1.61999 87.168
lradius 36.8856
lwrist -4.0563
lhand -17.5036 27.2
lfingers 7.12502
lthumb 8.74934 56.9986
rfemur -26.4115 0.806844 10.6278
rtibia 25.1922
rfoot -2.22992 -5.01764
rtoes -2.58752
lfemur 10.1356 -4.7389 -32.9472
ltibia 11.4729
lfoot -9.75348 -12.0981
ltoes 9.07484
